<?xml version="1.0" encoding="iso-8859-1"?>
<!-- Generator: Adobe Illustrator 19.0.0, SVG Export Plug-In . SVG Version: 6.00 Build 0)  -->
<svg version="1.1" id="Capa_1" xmlns="http://www.w3.org/2000/svg" xmlns:xlink="http://www.w3.org/1999/xlink" x="0px" y="0px"
	 viewBox="0 0 426.667 426.667" style="enable-background:new 0 0 426.667 426.667;" xml:space="preserve">
<g>
	<g>
		<circle cx="213.333" cy="234.667" r="68.267"/>
	</g>
</g>
<g>
	<g>
		<path d="M384,64h-67.627l-39.04-42.667h-128L110.293,64H42.667C19.093,64,0,83.093,0,106.667v256
			c0,23.573,19.093,42.667,42.667,42.667H384c23.573,0,42.667-19.093,42.667-42.667v-256C426.667,83.093,407.573,64,384,64z
			 M213.333,341.333c-58.88,0-106.667-47.787-106.667-106.667S154.453,128,213.333,128S320,175.787,320,234.667
			S272.213,341.333,213.333,341.333z"/>
	</g>
</g>
<g>
</g>
<g>
</g>
<g>
</g>
<g>
</g>
<g>
</g>
<g>
</g>
<g>
</g>
<g>
</g>
<g>
</g>
<g>
</g>
<g>
</g>
<g>
</g>
<g>
</g>
<g>
</g>
<g>
</g>
</svg>
