<svg height="512pt" viewBox="0 0 512 512.00036" width="512pt" xmlns="http://www.w3.org/2000/svg"><path d="m492 145.003906c-11.046875 0-20 8.953125-20 20v266.996094c0 16.933594-10.582031 31.433594-25.476562 37.261719.769531-5.582031.601562-11.324219-.589844-17.003907-9.003906-43.007812-32.851563-82.140624-67.140625-110.1875-16.042969-13.117187-34.046875-23.507812-53.214844-30.902343 21.679687-19.074219 35.382813-47.003907 35.382813-78.082031 0-57.34375-46.652344-104-104-104-57.34375 0-104 46.65625-104 104 0 30.796874 13.460937 58.503906 34.804687 77.566406-19.671875 7.421875-38.144531 17.992187-54.558594 31.417968-34.292969 28.046876-58.136719 67.175782-67.144531 110.183594-1.1875 5.683594-1.359375 11.425782-.585938 17.003906-14.894531-5.824218-25.476562-20.324218-25.476562-37.257812v-351.996094c0-22.058594 17.945312-40 40-40h210c11.046875 0 20-8.957031 20-20 0-11.046875-8.953125-19.99999975-20-19.99999975h-210c-44.113281 0-80 35.88671875-80 79.99999975v351.996094c0 44.113281 35.886719 80 80 80h352c44.109375 0 80-35.886719 80-80v-267c0-11.042969-8.957031-19.996094-20-19.996094zm-235.039062 24.082032c35.292968 0 64 28.710937 64 64 0 35.292968-28.707032 64-64 64-35.289063 0-64-28.707032-64-64 0-35.289063 28.710937-64 64-64zm-149.8125 299.367187c-1.074219-1.316406-2.75-4.109375-1.933594-8 14.789062-70.640625 78.117187-121.988281 150.785156-122.441406 72.667969.453125 135.992188 51.800781 150.785156 122.441406.8125 3.890625-.863281 6.683594-1.933594 8-1.074218 1.328125-3.480468 3.546875-7.503906 3.546875h-282.695312c-4.023438 0-6.429688-2.21875-7.503906-3.546875zm220.710937-378.304687c-7.8125-7.808594-7.8125-20.472657-.003906-28.285157 7.808593-7.8125 20.472656-7.816406 28.28125-.003906l45.546875 45.527344c.519531.449219 1.136718.652343 1.832031.609375.640625-.042969 1.183594-.285156 1.621094-.722656l70.539062-98.886719c6.417969-8.992188 18.90625-11.082031 27.898438-4.667969 8.992187 6.414062 11.082031 18.90625 4.664062 27.898438l-71.03125 99.574218c-.222656.308594-.453125.613282-.691406.914063-7.4375 9.25-18.496094 15.011719-30.339844 15.800781-.9375.0625-1.875.09375-2.808593.09375-10.871094 0-21.4375-4.191406-29.355469-11.730469-.117188-.109375-.234375-.226562-.351563-.339843zm0 0"/></svg>