<svg width="27" height="32" viewBox="0 0 27 32" fill="none" xmlns="http://www.w3.org/2000/svg">
<path d="M0.326193 29.6445L7.91714 20.5688C6.44676 18.3973 5.56144 15.638 5.56144 12.6328C5.56144 5.66748 10.3018 0 16.1276 0C21.9535 0 26.6937 5.66742 26.6937 12.6327C26.6937 19.598 21.9534 25.2655 16.1276 25.2655C13.6139 25.2655 11.3061 24.207 9.48981 22.4491L1.89886 31.5247C1.68198 31.784 1.39727 31.9144 1.1125 31.9144C0.827736 31.9144 0.543024 31.784 0.326139 31.5247C-0.108725 31.0048 -0.108723 30.1644 0.326193 29.6445ZM16.1276 22.606C20.7277 22.606 24.4693 18.1327 24.4693 12.6327C24.4693 7.1328 20.7277 2.65949 16.1276 2.65949C11.5274 2.65949 7.78586 7.1328 7.78586 12.6327C7.78586 18.1327 11.5274 22.606 16.1276 22.606Z" fill="#484848"/>
</svg>
